# xmcd CD database file
#
# Track frame offsets:
#	150
#	48746
#	117055
#	174327
#	222268
#
# Disc length: 3461 seconds
#
# Revision: 0
# Processed by: cddbd v1.5.2PL0 Copyright (c) Steve Scherf et al.
# Submitted via: CDex 1.70beta2
#
DISCID=400d8305
DTITLE=Art Pepper - Unreleased Art, Vol. 1 Abashiri Shimin Kaikan Hall - November 22, 1981 - Disc 1
DYEAR=1981
DGENRE=Jazz
TTITLE0=Landscape
TTITLE1=Besame Mucho
TTITLE2=Red Car
TTITLE3=Goodbye
TTITLE4=Straight Life
EXTD=YEAR: 1981
EXTT0=
EXTT1=
EXTT2=
EXTT3=
EXTT4=
PLAYORDER=
